PathFileType	4	(X/Y/Z)	D:\TRACE\spot_10-12-23\spot_arm_body_motion_1_5-platform.trc
DataRate	CameraRate	NumFrames	NumMarkers	Units	OrigDataRate	OrigDataStartFrame	OrigNumFrames
100.00	100.00	      75	5	mm	100.00	1	      7000
Frame#	Time	Left_Front			Right_Front			Left_Aft			Right_Aft			Post			
		X1	Y1	Z1	X2	Y2	Z2	X3	Y3	Z3	X4	Y4	Z4	X5	Y5	Z5	

1	0.000	-740.07410	14.39845	-650.41486	827.34698	12.71380	-625.82764	-673.06128	10.13321	488.26825	735.48468	7.59384	589.72668	47.50803	744.11206	-957.62897	
2	0.010	-740.08765	14.40113	-650.40283	827.36389	12.71077	-625.81439	-673.03381	10.14608	488.26480	735.50952	7.59875	589.70361	47.52376	744.12164	-957.62378	
3	0.020	-740.11224	14.41893	-650.42834	827.34558	12.72853	-625.79846	-673.04395	10.16314	488.27118	735.49054	7.62017	589.68231	47.49945	744.13080	-957.62494	
4	0.030	-740.05585	14.40254	-650.42761	827.35510	12.70073	-625.83362	-673.03876	10.11036	488.29144	735.46887	7.57706	589.70044	47.53920	744.13629	-957.66650	
5	0.040	-740.05542	14.40330	-650.43945	827.32361	12.69784	-625.82635	-673.03442	10.12977	488.28348	735.46661	7.59254	589.69220	47.52525	744.13300	-957.65436	
6	0.050	-740.06647	14.40001	-650.40094	827.36029	12.69827	-625.79218	-673.04492	10.11314	488.28357	735.45660	7.58269	589.69043	47.52271	744.13324	-957.65649	
7	0.060	-740.04724	14.34490	-650.43695	827.34998	12.69796	-625.83911	-673.01813	10.11874	488.24512	735.47766	7.55937	589.70886	47.51960	744.13098	-957.66388	
8	0.070	-740.04419	14.38080	-650.42499	827.34460	12.70162	-625.81732	-672.98083	10.09514	488.27011	735.47986	7.57342	589.71027	47.53242	744.14349	-957.62549	
9	0.080	-740.02222	14.39300	-650.43555	827.32990	12.69784	-625.79742	-673.00641	10.17334	488.24380	735.48621	7.56438	589.70123	47.51411	744.11145	-957.61902	
10	0.090	-740.07721	14.44057	-650.38586	827.33270	12.68355	-625.82166	-672.96857	10.14518	488.24255	735.47449	7.62027	589.67584	47.52708	744.11554	-957.62103	
11	0.100	-740.06140	14.40012	-650.41772	827.31586	12.70461	-625.83789	-673.05200	10.13176	488.24744	735.44458	7.58367	589.69214	47.51214	744.14404	-957.64142	
12	0.110	-740.10498	14.42840	-650.42450	827.33856	12.70257	-625.81830	-673.04840	10.11964	488.26373	735.48560	7.60666	589.67316	47.53310	744.14355	-957.64270	
13	0.120	-740.02942	14.40372	-650.44080	827.35510	12.68476	-625.83734	-673.02246	10.13230	488.27655	735.50201	7.60311	589.72070	47.53202	744.12305	-957.65137	
14	0.130	-740.04681	14.40434	-650.42627	827.35413	12.71787	-625.80682	-673.03253	10.12383	488.27563	735.46881	7.58885	589.68304	47.50371	744.13263	-957.64929	
15	0.140	-740.06036	14.40362	-650.43353	827.35919	12.70817	-625.80219	-673.02502	10.13246	488.29211	735.46289	7.59903	589.68610	47.30246	744.27490	-957.83826	
16	0.150	-740.06561	14.45691	-650.43567	827.36743	12.72942	-625.79858	-673.01575	10.20943	488.23398	735.45709	7.63372	589.68530	47.53878	744.13049	-957.66016	
17	0.160	-740.04431	14.57218	-650.42279	827.32794	12.78702	-625.82275	-673.02643	10.15268	488.27692	735.45740	7.58375	589.70258	47.54267	744.14502	-957.64270	
18	0.170	-740.00201	14.50836	-650.40399	827.37488	12.74025	-625.79529	-673.02240	10.11988	488.28418	735.45740	7.61198	589.67719	47.54455	744.14783	-957.64417	
19	0.180	-740.06287	14.40141	-650.42139	827.32880	12.70326	-625.82092	-673.01294	10.13126	488.25989	735.46545	7.58880	589.71930	47.50478	744.15674	-957.62714	
20	0.190	-740.05975	14.35359	-650.40479	827.34973	12.68664	-625.83051	-673.02887	10.10726	488.26352	735.42621	7.58083	589.68494	47.52147	744.11969	-957.61584	
21	0.200	-740.06915	14.45727	-650.42578	827.32733	12.72653	-625.83527	-673.05072	10.10829	488.24271	735.46759	7.58724	589.70197	47.35130	744.26086	-957.78210	
22	0.210	-740.03809	14.47048	-650.40057	827.34222	12.74256	-625.83630	-673.04199	10.13338	488.25345	735.46997	7.59781	589.66608	47.53802	744.13361	-957.60223	
23	0.220	-739.88568	14.27233	-650.44818	827.36255	12.68655	-625.80811	-673.02759	10.22437	488.23138	735.45227	7.60197	589.68500	47.28357	744.26135	-957.80133	
24	0.230	-739.90662	14.22243	-650.43872	827.35382	12.71746	-625.80237	-673.02887	10.15793	488.26367	735.48889	7.59495	589.70856	47.51319	744.12854	-957.62555	
25	0.240	-739.93127	14.27832	-650.48438	827.33075	12.72860	-625.83441	-673.02252	10.11235	488.27670	735.45111	7.57647	589.70374	47.52142	744.10596	-957.63800	
26	0.250	-739.99280	14.41571	-650.54883	827.31177	12.71236	-625.85327	-673.03894	10.07380	488.28336	735.45691	7.59798	589.71191	47.52330	744.13843	-957.63367	
27	0.260	-740.02631	14.49525	-650.54657	827.33490	12.70463	-625.82776	-673.04639	10.08125	488.24069	735.42645	7.57013	589.66699	47.54104	744.14618	-957.65796	
28	0.270	-740.03632	14.46175	-650.52789	827.32837	12.71293	-625.82599	-673.04742	10.17231	488.23596	735.48621	7.59784	589.70880	47.51802	744.14655	-957.64929	
29	0.280	-739.97583	14.40610	-650.54382	827.35541	12.75679	-625.81769	-672.95911	10.17657	488.26682	735.50311	7.64525	589.71893	47.51283	744.14819	-957.62964	
30	0.290	-739.99866	14.44925	-650.51831	827.35406	12.70404	-625.79626	-673.10840	10.12848	488.32782	735.48438	7.59307	589.69696	47.50174	744.14319	-957.60870	
31	0.300	-739.99908	14.44491	-650.51233	827.35699	12.67860	-625.81335	-673.04126	10.11157	488.26648	735.47949	7.57899	589.70038	47.53013	744.11237	-957.66016	
32	0.310	-740.05566	14.45087	-650.54413	827.33258	12.69575	-625.82666	-673.04755	10.09948	488.27823	735.45056	7.58619	589.69995	47.51158	744.11377	-957.66687	
33	0.320	-740.01758	14.43279	-650.51752	827.34216	12.73163	-625.83636	-673.03461	10.14782	488.22968	735.47345	7.60306	589.70001	47.28868	744.28241	-957.85126	
34	0.330	-740.05219	14.48764	-650.51215	827.35040	12.76645	-625.80365	-673.03363	10.22390	488.26035	735.48059	7.65857	589.71643	47.52367	744.16199	-957.65399	
35	0.340	-740.02747	14.47965	-650.47583	827.34851	12.74362	-625.80756	-673.05365	10.22029	488.26431	735.46021	7.62502	589.70386	47.50563	744.15411	-957.63586	
36	0.350	-740.07336	14.45401	-650.46057	827.34180	12.69781	-625.81573	-673.28802	10.29280	488.60883	735.47150	7.60797	589.69672	47.52703	744.14722	-957.63043	
37	0.360	-740.06439	14.37072	-650.42291	827.30548	12.69271	-625.85522	-673.02252	9.89997	488.54996	735.45624	7.55869	589.71875	47.52664	744.11572	-957.62317	
38	0.370	-740.06219	14.39272	-650.42426	827.34039	12.70555	-625.81726	-673.00085	9.97974	488.41260	735.51221	7.58574	589.72449	47.52859	744.12939	-957.62231	
39	0.380	-740.07251	14.42492	-650.38806	827.33423	12.72506	-625.80017	-672.98267	10.04830	488.31528	735.50592	7.61757	589.70959	47.51538	744.14301	-957.61823	
40	0.390	-740.08380	14.42883	-650.38190	827.34668	12.72909	-625.80737	-672.99280	10.11228	488.26721	735.51648	7.63424	589.70233	47.51731	744.13385	-957.63672	
41	0.400	-740.09235	14.40471	-650.38214	827.31689	12.70292	-625.79749	-673.02069	10.15064	488.23672	735.45648	7.62742	589.68567	47.50401	744.13171	-957.63123	
42	0.410	-740.10455	14.38325	-650.39520	827.30060	12.66488	-625.84125	-673.03223	10.10428	488.23340	735.44836	7.58699	589.69489	47.48114	744.12537	-957.58453	
43	0.420	-740.12927	14.43880	-650.37238	827.29797	12.67486	-625.84595	-673.03247	10.12844	488.13858	735.45319	7.54935	589.69757	47.44950	744.14691	-957.57288	
44	0.430	-740.14685	14.46606	-650.32727	827.35651	12.69922	-625.82635	-673.01074	10.14304	488.06250	735.45941	7.58181	589.68640	47.53733	744.15192	-957.64459	
45	0.440	-740.16284	14.52426	-650.29163	827.33911	12.73695	-625.80719	-673.04688	10.21925	487.97968	735.51282	7.63865	589.70270	47.53354	744.15082	-957.67578	
46	0.450	-740.22565	14.54843	-650.29279	827.34595	12.73879	-625.82330	-673.15100	10.35424	487.80380	735.51776	7.64300	589.70618	47.54425	744.13898	-957.69391	
47	0.460	-740.28052	14.56538	-650.31409	827.33783	12.70645	-625.82513	-673.23248	10.40226	487.74869	735.47021	7.58517	589.70544	47.51186	744.14386	-957.65656	
48	0.470	-740.24414	14.55479	-650.31024	827.32428	12.68709	-625.84186	-673.22955	10.33587	487.73389	735.44989	7.57482	589.68884	47.52323	744.12909	-957.62384	
49	0.480	-740.30310	14.60833	-650.29755	827.31915	12.70736	-625.85071	-673.36273	10.48012	487.69281	735.44531	7.59266	589.69147	47.25652	744.30084	-957.81085	
50	0.490	-740.29376	14.68878	-650.27228	827.35461	12.74147	-625.83087	-673.21851	10.52649	487.59973	735.47321	7.66521	589.66772	47.50256	744.11511	-957.61469	
51	0.500	-740.32361	14.69639	-650.24237	827.35425	12.72777	-625.81213	-673.25952	10.57802	487.64468	735.54114	7.63658	589.68207	47.54235	744.14398	-957.64496	
52	0.510	-740.37451	14.63067	-650.20831	827.32458	12.68323	-625.83154	-673.31219	10.62749	487.61539	735.49878	7.60254	589.69891	47.52781	744.12061	-957.64722	
53	0.520	-740.44800	14.67019	-650.14240	827.33185	12.68182	-625.84338	-673.40540	10.62147	487.49686	735.49469	7.57042	589.69366	47.52470	744.09576	-957.64294	
54	0.530	-740.42047	14.62579	-650.18390	827.29419	12.71300	-625.84882	-673.40411	10.63849	487.39737	735.46295	7.58344	589.67596	47.53331	744.11469	-957.65045	
55	0.540	-740.07483	14.42459	-650.42664	827.33942	12.73207	-625.81702	-673.38647	10.71382	487.33057	735.50629	7.62251	589.69226	47.28910	744.27924	-957.83594	
56	0.550	-740.03265	14.45597	-650.40070	827.34094	12.75886	-625.82739	-673.34839	10.74947	487.31601	735.52002	7.66197	589.66644	47.51579	744.15112	-957.63129	
57	0.560	-740.07965	14.41200	-650.38879	827.37433	12.73094	-625.79315	-673.39673	10.76044	487.35251	735.51196	7.60543	589.70715	47.53916	744.14893	-957.63562	
58	0.570	-740.08203	14.38121	-650.43671	827.34045	12.70260	-625.82684	-673.43140	10.74988	487.31766	735.47076	7.58809	589.69556	47.53015	744.11267	-957.64911	
59	0.580	-740.07599	14.36139	-650.38367	827.33569	12.67835	-625.83960	-673.62958	10.84740	487.21780	735.45850	7.59013	589.69220	47.53532	744.10138	-957.63715	
60	0.590	-740.03387	14.35746	-650.42377	827.34998	12.70133	-625.82800	-673.44238	10.73894	487.18372	735.46838	7.62358	589.68683	47.35538	744.26575	-957.84601	
61	0.600	-740.02112	14.41316	-650.41003	827.34680	12.71539	-625.80896	-673.43585	10.80188	487.13419	735.47229	7.62442	589.70551	47.52007	744.12866	-957.63751	
62	0.610	-740.06317	14.42744	-650.39453	827.35181	12.71583	-625.79224	-673.46161	10.78689	487.14401	735.51062	7.63346	589.73059	47.49876	744.11035	-957.58783	
63	0.620	-740.04779	14.35496	-650.41986	827.32263	12.71085	-625.81299	-673.62286	10.96418	487.05222	735.48456	7.60744	589.68207	47.43634	744.14722	-957.61975	
64	0.630	-740.08569	14.41484	-650.39514	827.30255	12.69924	-625.82294	-673.53149	10.81771	487.03149	735.45868	7.54563	589.70197	47.51571	744.12415	-957.64020	
65	0.640	-740.08673	14.44873	-650.43146	827.31714	12.70941	-625.83636	-673.49628	10.75854	487.06741	735.46417	7.60669	589.69916	47.52791	744.12384	-957.63074	
66	0.650	-740.03973	14.45509	-650.41931	827.36041	12.73134	-625.82428	-673.68805	10.96178	486.97821	735.48474	7.64025	589.70483	47.52758	744.12018	-957.63275	
67	0.660	-740.06110	14.44282	-650.44928	827.36249	12.72515	-625.82550	-673.46350	10.81549	487.06372	735.52252	7.63140	589.69836	47.52688	744.14740	-957.63293	
68	0.670	-740.04773	14.42326	-650.40619	827.36023	12.71241	-625.79901	-673.48523	10.82909	487.01437	735.49329	7.61980	589.70667	47.29026	744.25977	-957.79608	
69	0.680	-740.08954	14.37097	-650.37177	827.32550	12.68884	-625.79901	-673.50952	10.84892	487.08060	735.49860	7.57118	589.71191	47.23696	744.23853	-957.77625	
70	0.690	-740.09094	14.37609	-650.42194	827.33051	12.69885	-625.81750	-673.70789	10.96635	487.00931	735.45636	7.59100	589.67993	47.32973	744.25116	-957.72516	
71	0.700	-740.06030	14.44845	-650.39972	827.32703	12.71129	-625.80432	-673.66992	10.91270	487.01633	735.46075	7.63401	589.68347	47.51965	744.12378	-957.63446	
72	0.710	-740.04163	14.44104	-650.40747	827.36371	12.72881	-625.81763	-673.47906	10.82666	487.09555	735.49365	7.62232	589.68921	47.52732	744.16302	-957.64728	
73	0.720	-740.02667	14.43250	-650.40308	827.33191	12.73257	-625.83051	-673.49854	10.83750	487.06653	735.47943	7.62185	589.71045	47.52951	744.13605	-957.63611	
74	0.730	-740.06964	14.36827	-650.39722	827.32922	12.69315	-625.82239	-673.47009	10.79810	487.15506	735.48535	7.58257	589.71643	47.52356	744.13593	-957.63879	
75	0.740	-740.05817	14.35200	-650.38135	827.32526	12.69018	-625.81665	-673.41968	10.74934	487.15015	735.46661	7.60187	589.72473	47.47121	744.10437	-957.57117	
